G04*
G04 #@! TF.GenerationSoftware,Altium Limited,Altium Designer,22.10.1 (41)*
G04*
G04 Layer_Color=65535*
%FSLAX25Y25*%
%MOIN*%
G70*
G04*
G04 #@! TF.SameCoordinates,D7D8B2A2-ADA4-419F-A72F-73B0DD1D3010*
G04*
G04*
G04 #@! TF.FilePolarity,Positive*
G04*
G01*
G75*
%ADD10C,0.01000*%
%ADD11C,0.00600*%
%ADD12C,0.01500*%
%ADD13C,0.00700*%
%ADD14C,0.00984*%
%ADD15C,0.02500*%
%ADD16C,0.00787*%
%ADD17C,0.00400*%
%ADD18C,0.00394*%
%ADD19C,0.00500*%
%ADD20C,0.01181*%
G36*
X284339Y25500D02*
X281839Y23000D01*
X283339D01*
Y20500D01*
X285339D01*
Y23000D01*
X286839D01*
X284339Y25500D01*
D02*
G37*
G36*
X244339D02*
X241839Y23000D01*
X243339D01*
Y20500D01*
X245339D01*
Y23000D01*
X246839D01*
X244339Y25500D01*
D02*
G37*
G36*
X164000Y364500D02*
X160500Y361000D01*
X167500D01*
X164000Y364500D01*
D02*
G37*
D10*
X73248Y21110D02*
X73216Y22109D01*
X73121Y23104D01*
X72963Y24091D01*
X72743Y25065D01*
X72462Y26024D01*
X72120Y26963D01*
X71719Y27879D01*
X71261Y28767D01*
X70748Y29624D01*
X70181Y30447D01*
X69564Y31233D01*
X68897Y31978D01*
X68185Y32679D01*
X67430Y33333D01*
X66635Y33938D01*
X65803Y34492D01*
X64937Y34991D01*
X64042Y35435D01*
X63120Y35821D01*
X62176Y36148D01*
X61213Y36414D01*
X60235Y36619D01*
X59246Y36761D01*
X58249Y36840D01*
X57250Y36856D01*
X56252Y36809D01*
X55259Y36698D01*
X54275Y36525D01*
X53304Y36289D01*
X52349Y35992D01*
X51416Y35636D01*
X50507Y35220D01*
X49626Y34748D01*
X48777Y34222D01*
X47963Y33642D01*
X47187Y33012D01*
X46453Y32334D01*
X45764Y31611D01*
X45121Y30845D01*
X44529Y30040D01*
X43988Y29200D01*
X43503Y28326D01*
X43073Y27424D01*
X42702Y26496D01*
X42390Y25547D01*
X42139Y24580D01*
X41950Y23598D01*
X41823Y22607D01*
X41760Y21610D01*
Y20611D01*
X41823Y19613D01*
X41950Y18622D01*
X42139Y17641D01*
X42390Y16673D01*
X42702Y15724D01*
X43073Y14796D01*
X43503Y13894D01*
X43988Y13021D01*
X44529Y12180D01*
X45121Y11375D01*
X45764Y10610D01*
X46453Y9887D01*
X47187Y9209D01*
X47963Y8579D01*
X48777Y7999D01*
X49626Y7472D01*
X50507Y7000D01*
X51416Y6585D01*
X52349Y6228D01*
X53304Y5932D01*
X54275Y5696D01*
X55259Y5522D01*
X56252Y5412D01*
X57250Y5364D01*
X58249Y5380D01*
X59246Y5459D01*
X60235Y5601D01*
X61213Y5806D01*
X62176Y6072D01*
X63120Y6399D01*
X64042Y6785D01*
X64937Y7229D01*
X65803Y7729D01*
X66635Y8282D01*
X67430Y8887D01*
X68185Y9542D01*
X68897Y10243D01*
X69564Y10988D01*
X70181Y11773D01*
X70748Y12596D01*
X71261Y13454D01*
X71719Y14342D01*
X72120Y15257D01*
X72462Y16196D01*
X72743Y17155D01*
X72963Y18130D01*
X73121Y19117D01*
X73216Y20111D01*
X73248Y21110D01*
X87521Y378500D02*
X87278Y379486D01*
X86605Y380246D01*
X85656Y380606D01*
X84648Y380484D01*
X83812Y379907D01*
X83340Y379008D01*
Y377992D01*
X83812Y377093D01*
X84648Y376517D01*
X85656Y376394D01*
X86605Y376754D01*
X87278Y377514D01*
X87521Y378500D01*
X107087Y17185D02*
X107022Y18192D01*
X106829Y19182D01*
X106511Y20140D01*
X106073Y21049D01*
X105523Y21895D01*
X104869Y22663D01*
X104122Y23341D01*
X103294Y23919D01*
X102400Y24385D01*
X101453Y24734D01*
X100469Y24958D01*
X99465Y25055D01*
X98457Y25023D01*
X97461Y24862D01*
X96493Y24575D01*
X95571Y24166D01*
X94708Y23643D01*
X93919Y23014D01*
X93217Y22289D01*
X92614Y21481D01*
X92118Y20601D01*
X91740Y19666D01*
X91484Y18690D01*
X91355Y17689D01*
Y16680D01*
X91484Y15680D01*
X91740Y14704D01*
X92118Y13769D01*
X92614Y12889D01*
X93217Y12081D01*
X93919Y11356D01*
X94708Y10727D01*
X95571Y10204D01*
X96493Y9796D01*
X97461Y9508D01*
X98457Y9347D01*
X99465Y9315D01*
X100469Y9412D01*
X101453Y9636D01*
X102400Y9985D01*
X103294Y10452D01*
X104122Y11029D01*
X104869Y11707D01*
X105523Y12476D01*
X106073Y13321D01*
X106511Y14230D01*
X106829Y15188D01*
X107022Y16178D01*
X107087Y17185D01*
X41752Y21110D02*
X73248D01*
X67900D02*
X68700D01*
X72500Y17310D01*
X62600Y21110D02*
X64900D01*
X71500Y14510D01*
X59700Y21110D02*
X60900D01*
X70000Y12010D01*
X55200Y21110D02*
X57000D01*
X68300Y9810D01*
X52100Y21110D02*
X52900D01*
X66000Y8010D01*
X48900Y21110D02*
X63400Y6610D01*
X44900Y21110D02*
X60200Y5810D01*
X41800Y19610D02*
Y20910D01*
Y19610D02*
X56000Y5410D01*
X43500Y14110D02*
Y14310D01*
Y14110D02*
X50600Y7010D01*
X306467Y57545D02*
X306896Y57115D01*
X80900Y363000D02*
X116600D01*
Y383000D01*
X80900D02*
X116600D01*
X80900Y363000D02*
Y383000D01*
X91513Y17185D02*
X107113D01*
X102913D02*
X103613D01*
X106413Y14385D01*
X100313Y17185D02*
X100813D01*
X105313Y12685D01*
X97713Y17185D02*
X97913D01*
X104013Y11085D01*
X94213Y17185D02*
X94913D01*
X102113Y9985D01*
X92113Y17085D02*
Y17185D01*
Y17085D02*
X99913Y9285D01*
X91813Y14885D02*
Y14985D01*
Y14885D02*
X96813Y9885D01*
X32350Y366338D02*
Y363583D01*
Y364961D01*
X34187D01*
Y366338D01*
Y363583D01*
X36941D02*
X35105D01*
X36941Y365420D01*
Y365879D01*
X36482Y366338D01*
X35564D01*
X35105Y365879D01*
X238502Y87283D02*
Y84528D01*
X239879D01*
X240339Y84987D01*
Y86824D01*
X239879Y87283D01*
X238502D01*
X241257Y84528D02*
X242175D01*
X241716D01*
Y87283D01*
X241257Y86824D01*
X234337Y116459D02*
Y118296D01*
X233877Y118755D01*
X232959D01*
X232500Y118296D01*
Y116459D01*
X232959Y116000D01*
X233877D01*
X233418Y116918D02*
X234337Y116000D01*
X233877D02*
X234337Y116459D01*
X235255Y116000D02*
X236173D01*
X235714D01*
Y118755D01*
X235255Y118296D01*
X223502Y65877D02*
Y63582D01*
X223961Y63122D01*
X224879D01*
X225339Y63582D01*
Y65877D01*
X226257Y63122D02*
X227175D01*
X226716D01*
Y65877D01*
X226257Y65418D01*
X75900Y79955D02*
Y77659D01*
X76359Y77200D01*
X77277D01*
X77737Y77659D01*
Y79955D01*
X80492Y77200D02*
X78655D01*
X80492Y79037D01*
Y79496D01*
X80032Y79955D01*
X79114D01*
X78655Y79496D01*
X218043Y82122D02*
Y84878D01*
X219420D01*
X219879Y84418D01*
Y83500D01*
X219420Y83041D01*
X218043D01*
X218961D02*
X219879Y82122D01*
X220798Y84878D02*
X222634D01*
Y84418D01*
X220798Y82582D01*
Y82122D01*
X207303Y81865D02*
Y84620D01*
X208681D01*
X209140Y84161D01*
Y83242D01*
X208681Y82783D01*
X207303D01*
X208222D02*
X209140Y81865D01*
X211895Y84620D02*
X210977Y84161D01*
X210058Y83242D01*
Y82324D01*
X210518Y81865D01*
X211436D01*
X211895Y82324D01*
Y82783D01*
X211436Y83242D01*
X210058D01*
X128806Y6890D02*
Y9645D01*
X130184D01*
X130643Y9186D01*
Y8268D01*
X130184Y7808D01*
X128806D01*
X129725D02*
X130643Y6890D01*
X131562Y9186D02*
X132021Y9645D01*
X132939D01*
X133398Y9186D01*
Y8727D01*
X132939Y8268D01*
X133398Y7808D01*
Y7349D01*
X132939Y6890D01*
X132021D01*
X131562Y7349D01*
Y7808D01*
X132021Y8268D01*
X131562Y8727D01*
Y9186D01*
X132021Y8268D02*
X132939D01*
X260000Y164800D02*
Y167555D01*
X261378D01*
X261837Y167096D01*
Y166177D01*
X261378Y165718D01*
X260000D01*
X260918D02*
X261837Y164800D01*
X264132D02*
Y167555D01*
X262755Y166177D01*
X264592D01*
X259000Y209300D02*
Y212055D01*
X260378D01*
X260837Y211596D01*
Y210678D01*
X260378Y210218D01*
X259000D01*
X259918D02*
X260837Y209300D01*
X261755Y211596D02*
X262214Y212055D01*
X263133D01*
X263592Y211596D01*
Y211137D01*
X263133Y210678D01*
X262673D01*
X263133D01*
X263592Y210218D01*
Y209759D01*
X263133Y209300D01*
X262214D01*
X261755Y209759D01*
X206000Y163800D02*
Y166555D01*
X207378D01*
X207837Y166096D01*
Y165178D01*
X207378Y164718D01*
X206000D01*
X206918D02*
X207837Y163800D01*
X210592D02*
X208755D01*
X210592Y165637D01*
Y166096D01*
X210133Y166555D01*
X209214D01*
X208755Y166096D01*
X206000Y208800D02*
Y211555D01*
X207378D01*
X207837Y211096D01*
Y210177D01*
X207378Y209718D01*
X206000D01*
X206918D02*
X207837Y208800D01*
X208755D02*
X209673D01*
X209214D01*
Y211555D01*
X208755Y211096D01*
X128704Y200623D02*
Y203378D01*
X130082D01*
X130541Y202918D01*
Y202000D01*
X130082Y201541D01*
X128704D01*
X129622D02*
X130541Y200623D01*
X133296Y203378D02*
X131459D01*
Y202000D01*
X132378Y202459D01*
X132837D01*
X133296Y202000D01*
Y201082D01*
X132837Y200623D01*
X131918D01*
X131459Y201082D01*
X195200Y67555D02*
Y64800D01*
X197037D01*
X197955D02*
X198873D01*
X198414D01*
Y67555D01*
X197955Y67096D01*
X120800Y25000D02*
Y27755D01*
X118963D01*
X116208D02*
X118045D01*
X116208Y25919D01*
Y25460D01*
X116667Y25000D01*
X117586D01*
X118045Y25460D01*
X56759Y60433D02*
Y57678D01*
X58137D01*
X58596Y58137D01*
Y59974D01*
X58137Y60433D01*
X56759D01*
X61351Y57678D02*
X59514D01*
X61351Y59514D01*
Y59974D01*
X60892Y60433D01*
X59974D01*
X59514Y59974D01*
X116379Y24141D02*
X115920Y24600D01*
X115002D01*
X114543Y24141D01*
Y22305D01*
X115002Y21845D01*
X115920D01*
X116379Y22305D01*
X117298Y21845D02*
X118216D01*
X117757D01*
Y24600D01*
X117298Y24141D01*
X119594D02*
X120053Y24600D01*
X120971D01*
X121430Y24141D01*
Y22305D01*
X120971Y21845D01*
X120053D01*
X119594Y22305D01*
Y24141D01*
X80041Y7418D02*
X79582Y7878D01*
X78663D01*
X78204Y7418D01*
Y5582D01*
X78663Y5122D01*
X79582D01*
X80041Y5582D01*
X80959D02*
X81418Y5122D01*
X82337D01*
X82796Y5582D01*
Y7418D01*
X82337Y7878D01*
X81418D01*
X80959Y7418D01*
Y6959D01*
X81418Y6500D01*
X82796D01*
X105753Y30103D02*
X105294Y30562D01*
X104376D01*
X103917Y30103D01*
Y28267D01*
X104376Y27808D01*
X105294D01*
X105753Y28267D01*
X106672Y30103D02*
X107131Y30562D01*
X108049D01*
X108508Y30103D01*
Y29644D01*
X108049Y29185D01*
X108508Y28726D01*
Y28267D01*
X108049Y27808D01*
X107131D01*
X106672Y28267D01*
Y28726D01*
X107131Y29185D01*
X106672Y29644D01*
Y30103D01*
X107131Y29185D02*
X108049D01*
X42848Y40288D02*
X42389Y40748D01*
X41470D01*
X41011Y40288D01*
Y38452D01*
X41470Y37993D01*
X42389D01*
X42848Y38452D01*
X43766Y40748D02*
X45603D01*
Y40288D01*
X43766Y38452D01*
Y37993D01*
X157041Y202418D02*
X156582Y202877D01*
X155663D01*
X155204Y202418D01*
Y200582D01*
X155663Y200122D01*
X156582D01*
X157041Y200582D01*
X159796Y202877D02*
X158878Y202418D01*
X157959Y201500D01*
Y200582D01*
X158418Y200122D01*
X159337D01*
X159796Y200582D01*
Y201041D01*
X159337Y201500D01*
X157959D01*
X10432Y230217D02*
X10891Y230676D01*
Y231594D01*
X10432Y232053D01*
X8595D01*
X8136Y231594D01*
Y230676D01*
X8595Y230217D01*
X10891Y227462D02*
Y229298D01*
X9513D01*
X9973Y228380D01*
Y227921D01*
X9513Y227462D01*
X8595D01*
X8136Y227921D01*
Y228839D01*
X8595Y229298D01*
X34432Y230217D02*
X34891Y230676D01*
Y231594D01*
X34432Y232053D01*
X32595D01*
X32136Y231594D01*
Y230676D01*
X32595Y230217D01*
X32136Y227921D02*
X34891D01*
X33513Y229298D01*
Y227462D01*
X11082Y214541D02*
X10622Y214082D01*
Y213163D01*
X11082Y212704D01*
X12918D01*
X13377Y213163D01*
Y214082D01*
X12918Y214541D01*
X11082Y215459D02*
X10622Y215918D01*
Y216837D01*
X11082Y217296D01*
X11541D01*
X12000Y216837D01*
Y216377D01*
Y216837D01*
X12459Y217296D01*
X12918D01*
X13377Y216837D01*
Y215918D01*
X12918Y215459D01*
X151541Y231918D02*
X151082Y232378D01*
X150163D01*
X149704Y231918D01*
Y230082D01*
X150163Y229623D01*
X151082D01*
X151541Y230082D01*
X154296Y229623D02*
X152459D01*
X154296Y231459D01*
Y231918D01*
X153837Y232378D01*
X152918D01*
X152459Y231918D01*
X152513Y258676D02*
X152054Y259135D01*
X151136D01*
X150677Y258676D01*
Y256839D01*
X151136Y256380D01*
X152054D01*
X152513Y256839D01*
X153432Y256380D02*
X154350D01*
X153891D01*
Y259135D01*
X153432Y258676D01*
D11*
X290936Y205059D02*
X290834Y206066D01*
X290531Y207031D01*
X290040Y207915D01*
X289381Y208683D01*
X288581Y209302D01*
X287673Y209748D01*
X286693Y210001D01*
X285683Y210053D01*
X284683Y209899D01*
X283734Y209548D01*
X282876Y209013D01*
X282142Y208316D01*
X281564Y207486D01*
X281166Y206556D01*
X280962Y205565D01*
Y204553D01*
X281166Y203562D01*
X281564Y202632D01*
X282142Y201802D01*
X282876Y201105D01*
X283734Y200570D01*
X284683Y200219D01*
X285683Y200065D01*
X286693Y200117D01*
X287673Y200370D01*
X288581Y200816D01*
X289381Y201435D01*
X290040Y202203D01*
X290531Y203087D01*
X290834Y204053D01*
X290936Y205059D01*
X238236Y204859D02*
X238134Y205866D01*
X237831Y206831D01*
X237340Y207715D01*
X236681Y208483D01*
X235881Y209102D01*
X234973Y209548D01*
X233993Y209801D01*
X232983Y209853D01*
X231983Y209699D01*
X231034Y209348D01*
X230176Y208813D01*
X229442Y208116D01*
X228865Y207286D01*
X228466Y206356D01*
X228262Y205365D01*
Y204353D01*
X228466Y203362D01*
X228865Y202432D01*
X229442Y201602D01*
X230176Y200905D01*
X231034Y200370D01*
X231983Y200019D01*
X232983Y199865D01*
X233993Y199917D01*
X234973Y200170D01*
X235881Y200616D01*
X236681Y201235D01*
X237340Y202003D01*
X237831Y202887D01*
X238134Y203853D01*
X238236Y204859D01*
Y159859D02*
X238134Y160865D01*
X237831Y161831D01*
X237340Y162715D01*
X236681Y163483D01*
X235881Y164102D01*
X234973Y164548D01*
X233993Y164801D01*
X232983Y164853D01*
X231983Y164699D01*
X231034Y164348D01*
X230176Y163813D01*
X229442Y163116D01*
X228865Y162286D01*
X228466Y161356D01*
X228262Y160365D01*
Y159353D01*
X228466Y158362D01*
X228865Y157432D01*
X229442Y156602D01*
X230176Y155905D01*
X231034Y155370D01*
X231983Y155019D01*
X232983Y154866D01*
X233993Y154917D01*
X234973Y155170D01*
X235881Y155616D01*
X236681Y156235D01*
X237340Y157003D01*
X237831Y157887D01*
X238134Y158853D01*
X238236Y159859D01*
X291736Y160559D02*
X291634Y161565D01*
X291331Y162531D01*
X290840Y163415D01*
X290181Y164183D01*
X289381Y164802D01*
X288473Y165248D01*
X287493Y165501D01*
X286483Y165553D01*
X285483Y165399D01*
X284534Y165048D01*
X283676Y164513D01*
X282942Y163816D01*
X282365Y162986D01*
X281965Y162056D01*
X281762Y161065D01*
Y160053D01*
X281965Y159062D01*
X282365Y158133D01*
X282942Y157302D01*
X283676Y156605D01*
X284534Y156070D01*
X285483Y155719D01*
X286483Y155566D01*
X287493Y155617D01*
X288473Y155870D01*
X289381Y156316D01*
X290181Y156935D01*
X290840Y157703D01*
X291331Y158587D01*
X291634Y159553D01*
X291736Y160559D01*
X149300Y177400D02*
X149198Y178407D01*
X148895Y179372D01*
X148404Y180256D01*
X147745Y181024D01*
X146945Y181643D01*
X146037Y182089D01*
X145057Y182342D01*
X144047Y182394D01*
X143047Y182240D01*
X142098Y181889D01*
X141240Y181354D01*
X140506Y180657D01*
X139928Y179826D01*
X139529Y178897D01*
X139326Y177906D01*
Y176894D01*
X139529Y175903D01*
X139928Y174973D01*
X140506Y174143D01*
X141240Y173446D01*
X142098Y172911D01*
X143047Y172560D01*
X144047Y172406D01*
X145057Y172458D01*
X146037Y172711D01*
X146945Y173157D01*
X147745Y173776D01*
X148404Y174544D01*
X148895Y175428D01*
X149198Y176393D01*
X149300Y177400D01*
X277936Y214559D02*
X293436D01*
X297436Y199559D02*
Y209059D01*
X278036Y194559D02*
X293436D01*
X274936Y199559D02*
Y209059D01*
X225236Y214359D02*
X240736D01*
X244736Y199359D02*
Y208859D01*
X225336Y194359D02*
X240736D01*
X222236Y199359D02*
Y208859D01*
Y154359D02*
Y163859D01*
X225336Y149359D02*
X240736D01*
X244736Y154359D02*
Y163859D01*
X225236Y169359D02*
X240736D01*
X275736Y155059D02*
Y164559D01*
X278836Y150059D02*
X294236D01*
X298236Y155059D02*
Y164559D01*
X278736Y170059D02*
X294236D01*
X155300Y173400D02*
Y182900D01*
X136800Y187900D02*
X152200D01*
X132800Y173400D02*
Y182900D01*
X136800Y167900D02*
X152300D01*
D12*
X218839Y68900D02*
X218286Y69661D01*
X217391Y69370D01*
Y68430D01*
X218286Y68139D01*
X218839Y68900D01*
X92600Y133400D02*
X92047Y134161D01*
X91153Y133870D01*
Y132930D01*
X92047Y132639D01*
X92600Y133400D01*
D13*
X220343Y74038D02*
X220409Y73041D01*
X220672Y72078D01*
X221121Y71185D01*
X221739Y70400D01*
X222500Y69753D01*
X223375Y69271D01*
X224328Y68972D01*
X225321Y68868D01*
X226316Y68964D01*
X227271Y69256D01*
X228149Y69732D01*
X228915Y70373D01*
X229539Y71153D01*
X229995Y72042D01*
X230265Y73004D01*
X230339Y74000D01*
X278243Y21605D02*
X277428Y22187D01*
X276529Y22626D01*
X275570Y22911D01*
X274576Y23033D01*
X273576Y22989D01*
X272597Y22781D01*
X271666Y22414D01*
X270809Y21898D01*
X270048Y21247D01*
X269405Y20480D01*
X268898Y19617D01*
X268540Y18682D01*
X268342Y17701D01*
X268309Y16701D01*
X268441Y15709D01*
X268735Y14752D01*
X269183Y13858D01*
X269774Y13049D01*
X270489Y12349D01*
X271310Y11777D01*
X272215Y11349D01*
X273178Y11075D01*
X274172Y10965D01*
X275172Y11020D01*
X276148Y11240D01*
X277075Y11618D01*
X277926Y12144D01*
X278679Y12804D01*
X279313Y13578D01*
X279810Y14447D01*
X280156Y15386D01*
X280343Y16370D01*
X280365Y17370D01*
X280221Y18361D01*
X279915Y19314D01*
X279456Y20203D01*
X278857Y21005D01*
X295179Y32300D02*
X294539Y32940D01*
X293898Y32300D01*
X294539Y31660D01*
X295179Y32300D01*
X274979Y32200D02*
X274339Y32840D01*
X273698Y32200D01*
X274339Y31560D01*
X274979Y32200D01*
X298314Y21544D02*
X297507Y22139D01*
X296612Y22593D01*
X295654Y22892D01*
X294660Y23029D01*
X293657Y22999D01*
X292673Y22803D01*
X291735Y22447D01*
X290869Y21941D01*
X290098Y21298D01*
X289445Y20536D01*
X288927Y19677D01*
X288558Y18743D01*
X288350Y17762D01*
X288306Y16759D01*
X288429Y15764D01*
X288716Y14802D01*
X289157Y13901D01*
X289742Y13086D01*
X290454Y12378D01*
X291273Y11799D01*
X292177Y11363D01*
X293140Y11083D01*
X294137Y10966D01*
X295139Y11016D01*
X296119Y11231D01*
X297050Y11606D01*
X297906Y12129D01*
X298663Y12787D01*
X299301Y13562D01*
X299802Y14431D01*
X300152Y15371D01*
X300342Y16357D01*
X300365Y17360D01*
X300222Y18353D01*
X299917Y19309D01*
X299458Y20201D01*
X298857Y21005D01*
X258314Y21544D02*
X257507Y22139D01*
X256612Y22593D01*
X255654Y22892D01*
X254660Y23029D01*
X253657Y22999D01*
X252673Y22803D01*
X251735Y22447D01*
X250869Y21941D01*
X250098Y21298D01*
X249445Y20536D01*
X248927Y19677D01*
X248558Y18743D01*
X248349Y17762D01*
X248306Y16759D01*
X248429Y15764D01*
X248715Y14802D01*
X249157Y13901D01*
X249742Y13086D01*
X250454Y12378D01*
X251273Y11799D01*
X252177Y11363D01*
X253140Y11083D01*
X254137Y10966D01*
X255139Y11016D01*
X256119Y11231D01*
X257050Y11606D01*
X257906Y12129D01*
X258663Y12787D01*
X259301Y13562D01*
X259802Y14431D01*
X260152Y15371D01*
X260342Y16357D01*
X260365Y17360D01*
X260222Y18353D01*
X259917Y19309D01*
X259457Y20201D01*
X258857Y21005D01*
X234979Y32200D02*
X234339Y32840D01*
X233698Y32200D01*
X234339Y31560D01*
X234979Y32200D01*
X255179Y32300D02*
X254539Y32940D01*
X253898Y32300D01*
X254539Y31660D01*
X255179Y32300D01*
X238243Y21605D02*
X237428Y22187D01*
X236529Y22626D01*
X235570Y22911D01*
X234576Y23033D01*
X233576Y22989D01*
X232597Y22781D01*
X231666Y22414D01*
X230808Y21898D01*
X230048Y21247D01*
X229405Y20480D01*
X228898Y19617D01*
X228540Y18682D01*
X228342Y17701D01*
X228309Y16701D01*
X228441Y15709D01*
X228735Y14752D01*
X229184Y13858D01*
X229773Y13049D01*
X230489Y12349D01*
X231310Y11777D01*
X232215Y11349D01*
X233178Y11075D01*
X234172Y10965D01*
X235172Y11020D01*
X236148Y11240D01*
X237075Y11618D01*
X237926Y12144D01*
X238679Y12804D01*
X239313Y13578D01*
X239810Y14447D01*
X240156Y15386D01*
X240343Y16370D01*
X240365Y17370D01*
X240221Y18361D01*
X239915Y19314D01*
X239456Y20203D01*
X238857Y21005D01*
X277429Y106483D02*
X278164Y105820D01*
X278975Y105251D01*
X279848Y104783D01*
X280771Y104423D01*
X281731Y104178D01*
X282713Y104050D01*
X283703Y104042D01*
X284688Y104153D01*
X285651Y104381D01*
X286580Y104725D01*
X287461Y105177D01*
X288281Y105733D01*
X289029Y106384D01*
X285109Y86964D02*
X284826Y87927D01*
X284068Y88583D01*
X283075Y88726D01*
X282163Y88310D01*
X281620Y87466D01*
Y86462D01*
X282163Y85618D01*
X283075Y85202D01*
X284068Y85344D01*
X284826Y86001D01*
X285109Y86964D01*
X276179Y63826D02*
X275896Y64789D01*
X275138Y65446D01*
X274145Y65589D01*
X273233Y65172D01*
X272690Y64328D01*
Y63325D01*
X273233Y62481D01*
X274145Y62064D01*
X275138Y62207D01*
X275896Y62864D01*
X276179Y63826D01*
X291279Y63726D02*
X290996Y64689D01*
X290238Y65346D01*
X289245Y65489D01*
X288333Y65072D01*
X287790Y64228D01*
Y63225D01*
X288333Y62381D01*
X289245Y61964D01*
X290238Y62107D01*
X290996Y62764D01*
X291279Y63726D01*
X76895Y128462D02*
X76829Y129459D01*
X76566Y130422D01*
X76117Y131315D01*
X75500Y132100D01*
X74739Y132747D01*
X73864Y133229D01*
X72911Y133528D01*
X71917Y133632D01*
X70923Y133535D01*
X69968Y133244D01*
X69089Y132768D01*
X68323Y132127D01*
X67700Y131347D01*
X67244Y130458D01*
X66974Y129496D01*
X66900Y128500D01*
X127500Y221927D02*
X127571Y220950D01*
X127768Y219990D01*
X128089Y219064D01*
X128528Y218188D01*
X129077Y217376D01*
X129727Y216643D01*
X130468Y216001D01*
X131285Y215461D01*
X132167Y215033D01*
X133096Y214722D01*
X134058Y214536D01*
X135036Y214477D01*
X136014Y214546D01*
X136974Y214741D01*
X137901Y215060D01*
X138778Y215498D01*
X139590Y216045D01*
X140324Y216695D01*
X140968Y217434D01*
X141509Y218251D01*
X141939Y219131D01*
X142251Y220060D01*
X142439Y221022D01*
X142500Y222000D01*
Y245000D02*
X142429Y245977D01*
X142232Y246937D01*
X141911Y247863D01*
X141473Y248740D01*
X140923Y249551D01*
X140273Y250284D01*
X139533Y250926D01*
X138715Y251466D01*
X137834Y251895D01*
X136904Y252205D01*
X135942Y252391D01*
X134964Y252450D01*
X133986Y252381D01*
X133026Y252186D01*
X132099Y251867D01*
X131222Y251430D01*
X130410Y250882D01*
X129676Y250233D01*
X129033Y249493D01*
X128491Y248676D01*
X128061Y247796D01*
X127749Y246867D01*
X127561Y245905D01*
X127500Y244927D01*
X126000Y222000D02*
X126022Y221005D01*
X126153Y220019D01*
X126392Y219053D01*
X126737Y218119D01*
X127182Y217229D01*
X127723Y216394D01*
X128353Y215623D01*
X129065Y214927D01*
X129848Y214314D01*
X130695Y213791D01*
X131594Y213365D01*
X132535Y213040D01*
X133506Y212821D01*
X134495Y212711D01*
X135490Y212711D01*
X136479Y212820D01*
X137450Y213039D01*
X138391Y213363D01*
X139290Y213789D01*
X140137Y214311D01*
X140921Y214924D01*
X141633Y215620D01*
X142263Y216390D01*
X142805Y217225D01*
X143251Y218114D01*
X143596Y219048D01*
X143836Y220014D01*
X143968Y221000D01*
X143990Y221995D01*
X144000Y245087D02*
X143937Y246094D01*
X143761Y247086D01*
X143476Y248053D01*
X143085Y248982D01*
X142592Y249862D01*
X142003Y250680D01*
X141327Y251428D01*
X140572Y252096D01*
X139746Y252674D01*
X138861Y253157D01*
X137928Y253538D01*
X136958Y253812D01*
X135963Y253976D01*
X134956Y254028D01*
X133950Y253966D01*
X132957Y253793D01*
X131990Y253509D01*
X131060Y253119D01*
X130180Y252628D01*
X129360Y252041D01*
X128611Y251366D01*
X127942Y250612D01*
X127362Y249788D01*
X126877Y248904D01*
X126495Y247971D01*
X126219Y247001D01*
X126053Y246007D01*
X126000Y245000D01*
X-14634Y31370D02*
Y64370D01*
X-21634Y31370D02*
X32866D01*
X-21634Y64370D02*
X32866D01*
Y31370D02*
Y64370D01*
X-21634Y31370D02*
Y64370D01*
X114787Y12083D02*
Y13883D01*
X120187Y12083D02*
Y13883D01*
X154000Y366400D02*
X324800D01*
Y380500D01*
X154000D02*
X324800D01*
X154000Y366400D02*
Y380500D01*
X297336Y193059D02*
X297436Y193159D01*
X244636Y192859D02*
X244736Y192959D01*
X244636Y147859D02*
X244736Y147959D01*
X298136Y148559D02*
X298236Y148659D01*
X211697Y152643D02*
Y154443D01*
X206297Y152643D02*
Y154443D01*
X211697Y197643D02*
Y199443D01*
X206297Y197643D02*
Y199443D01*
X264697Y198143D02*
Y199943D01*
X259297Y198143D02*
Y199943D01*
X260297Y153642D02*
Y155443D01*
X265697Y153642D02*
Y155443D01*
X245339Y54000D02*
Y74000D01*
X205339Y54000D02*
X245339D01*
X205339D02*
Y74000D01*
X230439D02*
X245339D01*
X205339D02*
X220339D01*
X270139Y12800D02*
X278639Y21300D01*
X264339Y27000D02*
X304339D01*
X264339Y7000D02*
Y22000D01*
X304339Y7000D02*
Y32100D01*
X303339D02*
X304339D01*
X303339D02*
Y35200D01*
X264339Y22000D02*
Y37000D01*
X263739Y32500D02*
Y35000D01*
X284539Y9100D02*
Y24200D01*
X290139Y12800D02*
X298589Y21250D01*
X264339Y7000D02*
X304339D01*
Y9100D02*
Y21000D01*
X264339Y37000D02*
X304339D01*
X303339Y35500D02*
X304339D01*
Y37000D01*
X264339Y35500D02*
Y37000D01*
X263339Y35500D02*
X264339D01*
X224339Y37000D02*
X264339D01*
Y9100D02*
Y21000D01*
X224339Y7000D02*
X264339D01*
X250139Y12800D02*
X258589Y21250D01*
X244539Y9100D02*
Y24200D01*
X223739Y32500D02*
Y35000D01*
X224339Y22000D02*
Y37000D01*
X263339Y32100D02*
Y35200D01*
Y32100D02*
X264339D01*
Y7000D02*
Y32100D01*
X224339Y7000D02*
Y22000D01*
Y27000D02*
X264339D01*
X230139Y12800D02*
X238639Y21300D01*
X212299Y93084D02*
Y94884D01*
X206899Y93084D02*
Y94884D01*
X217899Y93084D02*
Y94884D01*
X223299Y93084D02*
Y94884D01*
X252156Y42906D02*
X314216D01*
X252156Y119246D02*
X314216D01*
X252156Y42906D02*
Y119246D01*
X314216Y42906D02*
Y119246D01*
X289129Y106483D02*
X300529D01*
X266029Y106583D02*
X277329D01*
X283329Y68546D02*
Y84983D01*
X283229Y88984D02*
Y109408D01*
X292699Y59346D02*
X300299D01*
X290099Y61946D02*
X292699Y59346D01*
X265099D02*
X271699D01*
X274399Y62046D01*
X283319Y68546D02*
X287219Y64646D01*
X52000Y138500D02*
X92000D01*
X52000D02*
Y318500D01*
X92000D01*
Y138500D02*
Y318500D01*
X76900Y128500D02*
X107000D01*
X37000D02*
X66800D01*
X107000D02*
Y328500D01*
X37000D02*
X107000D01*
X37000Y128500D02*
Y328500D01*
X85000Y131100D02*
Y135900D01*
X84900Y136000D02*
X85000Y135900D01*
X84900Y136000D02*
X85100D01*
X87500Y133600D01*
X87400D02*
X87500D01*
X85000Y131200D02*
X87400Y133600D01*
X85000Y131100D02*
Y131200D01*
X132800Y189300D02*
X132900Y189400D01*
X137039Y200617D02*
Y202416D01*
X142439Y200617D02*
Y202416D01*
X146787Y200584D02*
Y202383D01*
X152187Y200584D02*
Y202383D01*
X83187Y16083D02*
Y17884D01*
X77787Y16083D02*
Y17884D01*
X28687Y229083D02*
Y230884D01*
X23287Y229083D02*
Y230884D01*
X13813Y229117D02*
Y230917D01*
X19213Y229117D02*
Y230917D01*
X21584Y212313D02*
X23383D01*
X21584Y217713D02*
X23383D01*
X129792Y19475D02*
X131592D01*
X129792Y14075D02*
X131592D01*
X154713Y246116D02*
Y247917D01*
X149313Y246116D02*
Y247917D01*
X149287Y219083D02*
Y220883D01*
X154687Y219083D02*
Y220883D01*
X142500Y222000D02*
Y245000D01*
X127499Y222000D02*
X127500Y245000D01*
X144000Y222000D02*
Y245000D01*
X125999Y222000D02*
X126000Y245000D01*
D14*
X81496Y37748D02*
X80758Y38174D01*
Y37322D01*
X81496Y37748D01*
D15*
X73465Y359606D02*
Y382126D01*
X23937Y359606D02*
X73465D01*
X23937D02*
Y382126D01*
X73465D01*
X190079Y4882D02*
Y27402D01*
X140551Y4882D02*
X190079D01*
X140551D02*
Y27402D01*
X190079D01*
X8102Y113264D02*
X30622D01*
Y73736D02*
Y113264D01*
X8102Y73736D02*
X30622D01*
X8102D02*
Y113264D01*
D16*
X173740Y75236D02*
X183740D01*
X173740Y85236D02*
X183740D01*
Y45236D02*
Y85236D01*
X173740Y45236D02*
Y85236D01*
Y45236D02*
X183740D01*
X113000Y138500D02*
X123000D01*
X113000Y208500D02*
X123000D01*
Y128500D02*
Y208500D01*
X113000Y128500D02*
X123000D01*
X113000D02*
Y208500D01*
X114000Y6100D02*
X121000D01*
X114000Y19900D02*
X121000D01*
X114000Y6100D02*
Y11393D01*
Y14444D02*
Y19900D01*
X121000Y14444D02*
Y19900D01*
Y6100D02*
Y11393D01*
X205436Y160449D02*
X212536D01*
X205436Y155003D02*
Y160449D01*
X212536Y155003D02*
Y160449D01*
Y146669D02*
Y151952D01*
X205436Y146669D02*
X212536D01*
X205436D02*
Y151952D01*
Y205449D02*
X212536D01*
X205436Y200003D02*
Y205449D01*
X212536Y200003D02*
Y205449D01*
Y191669D02*
Y196952D01*
X205436Y191669D02*
X212536D01*
X205436D02*
Y196952D01*
X258436Y205949D02*
X265536D01*
X258436Y200503D02*
Y205949D01*
X265536Y200503D02*
Y205949D01*
Y192169D02*
Y197452D01*
X258436Y192169D02*
X265536D01*
X258436D02*
Y197452D01*
X259436Y147669D02*
Y152952D01*
Y147669D02*
X266536D01*
Y152952D01*
Y156003D02*
Y161449D01*
X259436Y156003D02*
Y161449D01*
X266536D01*
X191339Y82500D02*
Y102500D01*
Y82500D02*
X201339D01*
Y102500D01*
X191339D02*
X201339D01*
X206039Y100890D02*
X213139D01*
X206039Y95444D02*
Y100890D01*
X213139Y95444D02*
Y100890D01*
Y87110D02*
Y92393D01*
X206039Y87110D02*
X213139D01*
X206039D02*
Y92393D01*
X217039Y87110D02*
Y92393D01*
Y87110D02*
X224139D01*
Y92393D01*
Y95444D02*
Y100890D01*
X217039Y95444D02*
Y100890D01*
X224139D01*
X76500Y97500D02*
Y107500D01*
Y97500D02*
X86500D01*
Y87500D02*
Y107500D01*
X56500Y87500D02*
X86500D01*
X56500D02*
Y107500D01*
X86500D01*
X20500Y128500D02*
Y208500D01*
Y128500D02*
X30500D01*
Y208500D01*
X20500D02*
X30500D01*
X20500Y138500D02*
X30500D01*
X20500Y248500D02*
X30500D01*
X20500Y238500D02*
Y328500D01*
Y238500D02*
X30500D01*
Y328500D01*
X20500D02*
X30500D01*
X113000Y268500D02*
X123000D01*
X113000Y328500D02*
X123000D01*
Y258500D02*
Y328500D01*
X113000Y258500D02*
X123000D01*
X113000D02*
Y328500D01*
X136200Y194610D02*
X143300D01*
Y200056D01*
X136200Y194610D02*
Y200056D01*
Y203107D02*
Y208390D01*
X143300D01*
Y203107D02*
Y208390D01*
X146000Y194600D02*
X153000D01*
X146000Y208400D02*
X153000D01*
X146000Y194600D02*
Y199893D01*
Y202944D02*
Y208400D01*
X153000Y202944D02*
Y208400D01*
Y194600D02*
Y199893D01*
X84000Y10100D02*
Y15393D01*
Y18444D02*
Y23900D01*
X77000Y18444D02*
Y23900D01*
Y10100D02*
Y15393D01*
Y23900D02*
X84000D01*
X77000Y10100D02*
X84000D01*
X42000Y56000D02*
X71264D01*
X42000Y54126D02*
Y56000D01*
X71264Y50500D02*
Y56000D01*
X42000Y43000D02*
Y44874D01*
X70500Y50500D02*
X71264D01*
X70500D02*
Y56000D01*
Y43000D02*
Y48500D01*
X71264D01*
X42000Y43000D02*
X71264D01*
Y48500D01*
X58075Y47532D02*
Y51468D01*
X55319Y51075D02*
X58075Y49500D01*
X55319Y47532D02*
X58075Y49500D01*
X55319Y47532D02*
Y51075D01*
X58075Y49500D02*
X58469D01*
X54532D02*
X55319D01*
X29500Y223100D02*
Y228393D01*
Y231444D02*
Y236900D01*
X22500Y231444D02*
Y236900D01*
Y223100D02*
Y228393D01*
Y236900D02*
X29500D01*
X22500Y223100D02*
X29500D01*
X13000Y231607D02*
Y236900D01*
Y223100D02*
Y228556D01*
X20000Y223100D02*
Y228556D01*
Y231607D02*
Y236900D01*
X13000Y223100D02*
X20000D01*
X13000Y236900D02*
X20000D01*
X15600Y211500D02*
X20893D01*
X23944D02*
X29400D01*
X23944Y218500D02*
X29400D01*
X15600D02*
X20893D01*
X29400Y211500D02*
Y218500D01*
X15600Y211500D02*
Y218500D01*
X123819Y20335D02*
X129102D01*
X123819Y13235D02*
Y20335D01*
Y13235D02*
X129102D01*
X132153D02*
X137598D01*
X132153Y20335D02*
X137598D01*
Y13235D02*
Y20335D01*
X148500Y253900D02*
X155500D01*
X148500Y240100D02*
X155500D01*
Y248607D02*
Y253900D01*
Y240100D02*
Y245556D01*
X148500Y240100D02*
Y245556D01*
Y248607D02*
Y253900D01*
Y213100D02*
X155500D01*
X148500Y226900D02*
X155500D01*
X148500Y213100D02*
Y218393D01*
Y221444D02*
Y226900D01*
X155500Y221444D02*
Y226900D01*
Y213100D02*
Y218393D01*
X64567Y355511D02*
Y352756D01*
X65944D01*
X66404Y353215D01*
Y355052D01*
X65944Y355511D01*
X64567D01*
X67322Y352756D02*
X68240D01*
X67781D01*
Y355511D01*
X67322Y355052D01*
X53543Y355511D02*
Y352756D01*
X54921D01*
X55380Y353215D01*
Y355052D01*
X54921Y355511D01*
X53543D01*
X56298Y355052D02*
X56757Y355511D01*
X57676D01*
X58135Y355052D01*
Y353215D01*
X57676Y352756D01*
X56757D01*
X56298Y353215D01*
Y355052D01*
X40551Y354133D02*
X42388D01*
X41469Y355052D02*
Y353215D01*
X45143Y355511D02*
X43306D01*
Y354133D01*
X44225Y354593D01*
X44684D01*
X45143Y354133D01*
Y353215D01*
X44684Y352756D01*
X43765D01*
X43306Y353215D01*
X31364Y355052D02*
X30905Y355511D01*
X29987D01*
X29528Y355052D01*
Y353215D01*
X29987Y352756D01*
X30905D01*
X31364Y353215D01*
Y354133D01*
X30446D01*
X32283Y352756D02*
Y355511D01*
X34119Y352756D01*
Y355511D01*
X35038D02*
Y352756D01*
X36415D01*
X36874Y353215D01*
Y355052D01*
X36415Y355511D01*
X35038D01*
X168964Y78608D02*
X168505Y78149D01*
Y77231D01*
X168964Y76772D01*
X170801D01*
X171260Y77231D01*
Y78149D01*
X170801Y78608D01*
X169882D01*
Y77690D01*
X171260Y79527D02*
X168505D01*
X171260Y81363D01*
X168505D01*
Y82282D02*
X171260D01*
Y83659D01*
X170801Y84118D01*
X168964D01*
X168505Y83659D01*
Y82282D01*
X169882Y67891D02*
Y69728D01*
X168964Y68809D02*
X170801D01*
X168505Y72483D02*
Y70646D01*
X169882D01*
X169423Y71565D01*
Y72024D01*
X169882Y72483D01*
X170801D01*
X171260Y72024D01*
Y71105D01*
X170801Y70646D01*
X168505Y57633D02*
Y58551D01*
Y58092D01*
X171260D01*
Y57633D01*
Y58551D01*
Y59929D02*
X168505D01*
X171260Y61766D01*
X168505D01*
X171260Y62684D02*
Y63602D01*
Y63143D01*
X168505D01*
X168964Y62684D01*
X168505Y46457D02*
Y47375D01*
Y46916D01*
X171260D01*
Y46457D01*
Y47375D01*
Y48752D02*
X168505D01*
X171260Y50589D01*
X168505D01*
X171260Y53344D02*
Y51508D01*
X169423Y53344D01*
X168964D01*
X168505Y52885D01*
Y51967D01*
X168964Y51508D01*
X178740Y33464D02*
X179658D01*
X179199D01*
Y30709D01*
X178740D01*
X179658D01*
X181036D02*
Y33464D01*
X182873Y30709D01*
Y33464D01*
X183791Y33005D02*
X184250Y33464D01*
X185169D01*
X185628Y33005D01*
Y32545D01*
X185169Y32086D01*
X184709D01*
X185169D01*
X185628Y31627D01*
Y31168D01*
X185169Y30709D01*
X184250D01*
X183791Y31168D01*
X166842Y33464D02*
X167760D01*
X167301D01*
Y30709D01*
X166842D01*
X167760D01*
X169138D02*
Y33464D01*
X170974Y30709D01*
Y33464D01*
X173270Y30709D02*
Y33464D01*
X171893Y32086D01*
X173729D01*
X157239D02*
X159076D01*
X158158Y33005D02*
Y31168D01*
X161831Y33464D02*
X159994D01*
Y32086D01*
X160913Y32545D01*
X161372D01*
X161831Y32086D01*
Y31168D01*
X161372Y30709D01*
X160454D01*
X159994Y31168D01*
X146719Y33005D02*
X146259Y33464D01*
X145341D01*
X144882Y33005D01*
Y31168D01*
X145341Y30709D01*
X146259D01*
X146719Y31168D01*
Y32086D01*
X145800D01*
X147637Y30709D02*
Y33464D01*
X149474Y30709D01*
Y33464D01*
X150392D02*
Y30709D01*
X151769D01*
X152229Y31168D01*
Y33005D01*
X151769Y33464D01*
X150392D01*
X123622Y90551D02*
Y93306D01*
X124540Y92388D01*
X125459Y93306D01*
Y90551D01*
X127755Y93306D02*
X126836D01*
X126377Y92847D01*
Y91010D01*
X126836Y90551D01*
X127755D01*
X128214Y91010D01*
Y92847D01*
X127755Y93306D01*
X130969Y92847D02*
X130510Y93306D01*
X129591D01*
X129132Y92847D01*
Y92388D01*
X129591Y91929D01*
X130510D01*
X130969Y91470D01*
Y91010D01*
X130510Y90551D01*
X129591D01*
X129132Y91010D01*
X131887Y93306D02*
X132805D01*
X132346D01*
Y90551D01*
X131887D01*
X132805D01*
X107874Y91929D02*
X109711D01*
X108792Y92847D02*
Y91010D01*
X112466Y93306D02*
X110629D01*
Y91929D01*
X111547Y92388D01*
X112006D01*
X112466Y91929D01*
Y91010D01*
X112006Y90551D01*
X111088D01*
X110629Y91010D01*
X93963Y92847D02*
X93503Y93306D01*
X92585D01*
X92126Y92847D01*
Y91010D01*
X92585Y90551D01*
X93503D01*
X93963Y91010D01*
Y91929D01*
X93044D01*
X94881Y90551D02*
Y93306D01*
X96718Y90551D01*
Y93306D01*
X97636D02*
Y90551D01*
X99014D01*
X99473Y91010D01*
Y92847D01*
X99014Y93306D01*
X97636D01*
X123622Y102362D02*
Y105117D01*
X124540Y104199D01*
X125459Y105117D01*
Y102362D01*
X126377Y105117D02*
X127295D01*
X126836D01*
Y102362D01*
X126377D01*
X127295D01*
X130510Y104658D02*
X130050Y105117D01*
X129132D01*
X128673Y104658D01*
Y104199D01*
X129132Y103740D01*
X130050D01*
X130510Y103280D01*
Y102821D01*
X130050Y102362D01*
X129132D01*
X128673Y102821D01*
X132805Y105117D02*
X131887D01*
X131428Y104658D01*
Y102821D01*
X131887Y102362D01*
X132805D01*
X133265Y102821D01*
Y104658D01*
X132805Y105117D01*
X109711Y104658D02*
X109251Y105117D01*
X108333D01*
X107874Y104658D01*
Y104199D01*
X108333Y103740D01*
X109251D01*
X109711Y103280D01*
Y102821D01*
X109251Y102362D01*
X108333D01*
X107874Y102821D01*
X112466Y104658D02*
X112006Y105117D01*
X111088D01*
X110629Y104658D01*
Y102821D01*
X111088Y102362D01*
X112006D01*
X112466Y102821D01*
X113384Y105117D02*
Y102362D01*
Y103280D01*
X115221Y105117D01*
X113843Y103740D01*
X115221Y102362D01*
X92126D02*
Y105117D01*
X93503D01*
X93963Y104658D01*
Y103740D01*
X93503Y103280D01*
X92126D01*
X93044D02*
X93963Y102362D01*
X96718Y104658D02*
X96258Y105117D01*
X95340D01*
X94881Y104658D01*
Y104199D01*
X95340Y103740D01*
X96258D01*
X96718Y103280D01*
Y102821D01*
X96258Y102362D01*
X95340D01*
X94881Y102821D01*
X97636Y105117D02*
X99473D01*
X98554D01*
Y102362D01*
X32283Y109449D02*
X34120D01*
X35039Y108530D01*
X34120Y107612D01*
X32283D01*
X33661D01*
Y109449D01*
X34579Y106694D02*
X35039Y106235D01*
Y105316D01*
X34579Y104857D01*
X32743D01*
X32283Y105316D01*
Y106235D01*
X32743Y106694D01*
X34579D01*
X33661Y97638D02*
Y95801D01*
X34579Y96719D02*
X32743D01*
X35039Y93046D02*
Y94883D01*
X33661D01*
X34120Y93964D01*
Y93505D01*
X33661Y93046D01*
X32743D01*
X32283Y93505D01*
Y94424D01*
X32743Y94883D01*
X34579Y83990D02*
X35039Y84449D01*
Y85368D01*
X34579Y85827D01*
X32743D01*
X32283Y85368D01*
Y84449D01*
X32743Y83990D01*
X33661D01*
Y84908D01*
X32283Y83072D02*
X35039D01*
X32283Y81235D01*
X35039D01*
Y80317D02*
X32283D01*
Y78939D01*
X32743Y78480D01*
X34579D01*
X35039Y78939D01*
Y80317D01*
D17*
X200913Y49925D02*
X201413D01*
Y58925D01*
X200913D02*
X201413D01*
X194413Y49925D02*
X194913D01*
X194413D02*
Y58925D01*
X194913D01*
X135378Y29378D02*
Y29878D01*
X126378D02*
X135378D01*
X126378Y29378D02*
Y29878D01*
X135378Y22878D02*
Y23378D01*
X126378Y22878D02*
X135378D01*
X126378D02*
Y23378D01*
D18*
X238150Y100200D02*
X243268D01*
Y103497D01*
Y109501D02*
Y112799D01*
X238150D02*
X243268D01*
D19*
X76221Y64717D02*
X78189D01*
X101811D02*
X103779D01*
X76221Y41094D02*
X103779D01*
X97087Y36370D02*
Y41094D01*
X101024D01*
Y36370D02*
Y41094D01*
X88032Y37945D02*
Y41094D01*
X91969D01*
Y37945D02*
Y41094D01*
X88032Y37945D02*
X91969D01*
X82913Y36370D02*
Y41094D01*
X78976D02*
X82913D01*
X78976Y36370D02*
Y41094D01*
X103779D02*
Y64717D01*
X76221Y41094D02*
Y64717D01*
D20*
X208268Y16141D02*
X210892D01*
X209580Y17453D02*
Y14829D01*
X212204Y14173D02*
X213515D01*
X212859D01*
Y18109D01*
X212204Y17453D01*
X218107Y14173D02*
X215483D01*
X218107Y16797D01*
Y17453D01*
X217451Y18109D01*
X216139D01*
X215483Y17453D01*
X219419Y18109D02*
Y15485D01*
X220731Y14173D01*
X222043Y15485D01*
Y18109D01*
X24803Y68110D02*
X27427D01*
X26115Y69421D02*
Y66798D01*
X28739Y66142D02*
X30051D01*
X29395D01*
Y70078D01*
X28739Y69421D01*
X34642Y66142D02*
X32019D01*
X34642Y68765D01*
Y69421D01*
X33986Y70078D01*
X32675D01*
X32019Y69421D01*
X35954Y70078D02*
Y67454D01*
X37266Y66142D01*
X38578Y67454D01*
Y70078D01*
M02*
