G04*
G04 #@! TF.GenerationSoftware,Altium Limited,Altium Designer,22.10.1 (41)*
G04*
G04 Layer_Color=8388736*
%FSLAX25Y25*%
%MOIN*%
G70*
G04*
G04 #@! TF.SameCoordinates,D7D8B2A2-ADA4-419F-A72F-73B0DD1D3010*
G04*
G04*
G04 #@! TF.FilePolarity,Negative*
G04*
G01*
G75*
%ADD30R,0.06312X0.05524*%
%ADD31R,0.06300X0.05800*%
%ADD32R,0.07887X0.06115*%
%ADD33R,0.06112X0.04537*%
%ADD34R,0.10642X0.07493*%
%ADD35R,0.05524X0.06312*%
%ADD36R,0.05800X0.06300*%
G04:AMPARAMS|DCode=37|XSize=47.37mil|YSize=86.74mil|CornerRadius=8.92mil|HoleSize=0mil|Usage=FLASHONLY|Rotation=0.000|XOffset=0mil|YOffset=0mil|HoleType=Round|Shape=RoundedRectangle|*
%AMROUNDEDRECTD37*
21,1,0.04737,0.06890,0,0,0.0*
21,1,0.02953,0.08674,0,0,0.0*
1,1,0.01784,0.01476,-0.03445*
1,1,0.01784,-0.01476,-0.03445*
1,1,0.01784,-0.01476,0.03445*
1,1,0.01784,0.01476,0.03445*
%
%ADD37ROUNDEDRECTD37*%
G04:AMPARAMS|DCode=38|XSize=224.53mil|YSize=232.41mil|CornerRadius=31.07mil|HoleSize=0mil|Usage=FLASHONLY|Rotation=0.000|XOffset=0mil|YOffset=0mil|HoleType=Round|Shape=RoundedRectangle|*
%AMROUNDEDRECTD38*
21,1,0.22453,0.17028,0,0,0.0*
21,1,0.16240,0.23241,0,0,0.0*
1,1,0.06213,0.08120,-0.08514*
1,1,0.06213,-0.08120,-0.08514*
1,1,0.06213,-0.08120,0.08514*
1,1,0.06213,0.08120,0.08514*
%
%ADD38ROUNDEDRECTD38*%
%ADD39R,0.16800X0.10800*%
%ADD40R,0.10800X0.16800*%
%ADD41C,0.06800*%
%ADD42C,0.07099*%
%ADD43R,0.07099X0.07099*%
%ADD44R,0.07099X0.07099*%
%ADD45R,0.09068X0.09068*%
%ADD46C,0.09068*%
%ADD47O,0.07000X0.09800*%
%ADD48R,0.07000X0.09800*%
%ADD49C,0.08300*%
%ADD50R,0.09800X0.06800*%
%ADD51O,0.09800X0.06800*%
%ADD52C,0.11800*%
%ADD53C,0.12800*%
%ADD54O,0.07099X0.08674*%
%ADD55R,0.06706X0.04737*%
%ADD56O,0.06706X0.04737*%
%ADD57C,0.05800*%
%ADD58C,0.03950*%
D30*
X117487Y16723D02*
D03*
Y9243D02*
D03*
X208997Y157282D02*
D03*
Y149802D02*
D03*
Y202282D02*
D03*
Y194802D02*
D03*
X261997Y202782D02*
D03*
Y195302D02*
D03*
X262997Y150802D02*
D03*
Y158282D02*
D03*
X209599Y97723D02*
D03*
Y90242D02*
D03*
X220599D02*
D03*
Y97723D02*
D03*
X139739Y197777D02*
D03*
Y205258D02*
D03*
X149487Y205223D02*
D03*
Y197742D02*
D03*
X80487Y13242D02*
D03*
Y20723D02*
D03*
X25987Y226242D02*
D03*
Y233723D02*
D03*
X16513Y233757D02*
D03*
Y226277D02*
D03*
X152013Y243277D02*
D03*
Y250758D02*
D03*
X151987Y223723D02*
D03*
Y216243D02*
D03*
D31*
X197913Y58925D02*
D03*
Y49925D02*
D03*
D32*
X240339Y92500D02*
D03*
Y79311D02*
D03*
D33*
X234508Y110240D02*
D03*
Y102759D02*
D03*
X243169Y106499D02*
D03*
D34*
X48626Y49500D02*
D03*
X64374D02*
D03*
D35*
X18743Y215013D02*
D03*
X26223D02*
D03*
X126951Y16775D02*
D03*
X134432D02*
D03*
D36*
X126378Y26378D02*
D03*
X135378D02*
D03*
D37*
X81004Y32433D02*
D03*
X98996Y32433D02*
D03*
D38*
X90000Y61567D02*
D03*
D39*
X23366Y29370D02*
D03*
D40*
X8366Y49370D02*
D03*
X33366D02*
D03*
D41*
X342520Y118110D02*
D03*
X211811D02*
D03*
X342520Y11811D02*
D03*
X11811Y374016D02*
D03*
X342520D02*
D03*
X11811Y11811D02*
D03*
D42*
X43701Y373228D02*
D03*
X53701D02*
D03*
X33701D02*
D03*
X178740Y50236D02*
D03*
Y60236D02*
D03*
Y70236D02*
D03*
X118000Y143500D02*
D03*
Y153500D02*
D03*
Y163500D02*
D03*
Y173500D02*
D03*
Y183500D02*
D03*
Y193500D02*
D03*
Y203500D02*
D03*
X160315Y18504D02*
D03*
X170315D02*
D03*
X150315D02*
D03*
X196339Y97500D02*
D03*
X81500Y92500D02*
D03*
X71500D02*
D03*
X61500D02*
D03*
X71500Y102500D02*
D03*
X61500D02*
D03*
X25500Y203500D02*
D03*
Y193500D02*
D03*
Y183500D02*
D03*
Y173500D02*
D03*
Y163500D02*
D03*
Y153500D02*
D03*
Y143500D02*
D03*
Y253500D02*
D03*
Y323500D02*
D03*
Y313500D02*
D03*
Y303500D02*
D03*
Y293500D02*
D03*
Y283500D02*
D03*
Y273500D02*
D03*
Y263500D02*
D03*
X118000Y283500D02*
D03*
Y273500D02*
D03*
Y293500D02*
D03*
Y303500D02*
D03*
Y313500D02*
D03*
Y323500D02*
D03*
X17000Y83500D02*
D03*
Y93500D02*
D03*
D43*
X63701Y373228D02*
D03*
X180315Y18504D02*
D03*
X81500Y102500D02*
D03*
D44*
X178740Y80236D02*
D03*
X118000Y133500D02*
D03*
X196339Y87500D02*
D03*
X25500Y133500D02*
D03*
Y243500D02*
D03*
X118000Y263500D02*
D03*
X17000Y103500D02*
D03*
D45*
X57500Y28000D02*
D03*
D46*
Y14220D02*
D03*
D47*
X314000Y373500D02*
D03*
X304000D02*
D03*
X294000D02*
D03*
X284000D02*
D03*
X274000D02*
D03*
X264000D02*
D03*
X254000D02*
D03*
X244000D02*
D03*
X234000D02*
D03*
X224000D02*
D03*
X214000D02*
D03*
X204000D02*
D03*
X194000D02*
D03*
X184000D02*
D03*
X174000D02*
D03*
D48*
X164000D02*
D03*
D49*
X272136Y194959D02*
D03*
X299236Y213759D02*
D03*
Y194959D02*
D03*
X272136Y213759D02*
D03*
X219436Y194759D02*
D03*
X246536Y213559D02*
D03*
Y194759D02*
D03*
X219436Y213559D02*
D03*
Y168559D02*
D03*
X246536Y149759D02*
D03*
Y168559D02*
D03*
X219436Y149759D02*
D03*
X272936Y169259D02*
D03*
X300036Y150459D02*
D03*
Y169259D02*
D03*
X272936Y150459D02*
D03*
X158100Y168700D02*
D03*
X131000Y187500D02*
D03*
Y168700D02*
D03*
X158100Y187500D02*
D03*
X135000Y223854D02*
D03*
Y243146D02*
D03*
D50*
X210339Y69000D02*
D03*
X102000Y133500D02*
D03*
D51*
X210339Y59000D02*
D03*
X240339D02*
D03*
Y69000D02*
D03*
X102000Y143500D02*
D03*
Y153500D02*
D03*
Y163500D02*
D03*
Y173500D02*
D03*
Y183500D02*
D03*
Y193500D02*
D03*
Y203500D02*
D03*
Y213500D02*
D03*
Y223500D02*
D03*
Y233500D02*
D03*
Y243500D02*
D03*
Y253500D02*
D03*
Y263500D02*
D03*
Y273500D02*
D03*
Y283500D02*
D03*
Y293500D02*
D03*
Y303500D02*
D03*
Y313500D02*
D03*
Y323500D02*
D03*
X42000Y133500D02*
D03*
Y143500D02*
D03*
Y153500D02*
D03*
Y163500D02*
D03*
Y173500D02*
D03*
Y183500D02*
D03*
Y193500D02*
D03*
Y203500D02*
D03*
Y213500D02*
D03*
Y223500D02*
D03*
Y233500D02*
D03*
Y243500D02*
D03*
Y253500D02*
D03*
Y263500D02*
D03*
Y273500D02*
D03*
Y283500D02*
D03*
Y293500D02*
D03*
Y303500D02*
D03*
Y313500D02*
D03*
Y323500D02*
D03*
D52*
X274339Y17000D02*
D03*
X294339D02*
D03*
X254339D02*
D03*
X234339D02*
D03*
D53*
X283217Y112906D02*
D03*
X306839Y57000D02*
D03*
X258839D02*
D03*
X306839Y105032D02*
D03*
X259594D02*
D03*
D54*
X88500Y373000D02*
D03*
X98500D02*
D03*
X108500D02*
D03*
D55*
X99213Y19685D02*
D03*
D56*
Y14685D02*
D03*
D57*
X230339Y92500D02*
D03*
D58*
X161417Y204724D02*
D03*
Y212598D02*
D03*
M02*
