M48
;Layer_Color=9474304
;FILE_FORMAT=2:5
INCH,TZ
;TYPE=PLATED
T1F00S00C0.01575
T2F00S00C0.02362
T3F00S00C0.02800
T4F00S00C0.03100
T5F00S00C0.03150
T6F00S00C0.03543
T7F00S00C0.03900
T8F00S00C0.04331
T9F00S00C0.04500
T10F00S00C0.05000
T12F00S00C0.11811
%
T01
X161417Y204724
Y212598
T02
X99213Y14685
Y19685
T03
X230339Y92500
T04
X210339Y59000
Y69000
X240339
Y59000
X246536Y149759
Y168559
Y194759
X272136Y194959
X272936Y169259
Y150459
X300036
Y169259
X299236Y194959
X219436Y194759
Y168559
Y149759
X158100Y168700
Y187500
X131000
Y168700
X102000Y173500
Y163500
Y153500
Y143500
Y133500
Y183500
Y193500
Y203500
X42000
Y193500
Y183500
Y173500
Y163500
Y153500
Y143500
Y133500
Y213500
Y223500
Y233500
Y243500
Y253500
Y263500
Y273500
Y283500
Y293500
Y303500
Y313500
Y323500
X102000
Y313500
Y303500
Y293500
Y283500
Y273500
Y263500
Y253500
Y243500
Y233500
Y223500
Y213500
X219436Y213559
X246536
X272136Y213759
X299236
T05
X150315Y18504
X160315
X170315
X180315
X17000Y83500
Y93500
Y103500
X135000Y223854
Y243146
X108500Y373000
X98500
X88500
X63701Y373228
X53701
X43701
X33701
T06
X57500Y14220
Y28000
T07
X214000Y373500
X224000
X234000
X244000
X254000
X264000
X274000
X284000
X294000
X304000
X314000
X204000
X194000
X184000
X174000
X164000
T08
X178740Y50236
Y60236
Y70236
Y80236
X196339Y87500
Y97500
X118000Y133500
Y143500
Y153500
Y163500
Y173500
Y183500
Y193500
Y203500
X81500Y102500
Y92500
X71500
X61500
Y102500
X71500
X25500Y133500
Y143500
Y153500
Y163500
Y173500
Y183500
Y193500
Y203500
Y243500
Y253500
Y263500
Y273500
Y283500
Y293500
Y303500
Y313500
Y323500
X118000
Y313500
Y303500
Y293500
Y283500
Y273500
Y263500
T09
X258839Y57000
X306839
Y105032
X283217Y112906
X259594Y105032
T10
X234339Y17000
X254339
X274339
X294339
T12
X11811Y11811
X342520
Y118110
X211811
X342520Y374016
X11811
M30
