G04*
G04 #@! TF.GenerationSoftware,Altium Limited,Altium Designer,22.10.1 (41)*
G04*
G04 Layer_Color=128*
%FSLAX25Y25*%
%MOIN*%
G70*
G04*
G04 #@! TF.SameCoordinates,D7D8B2A2-ADA4-419F-A72F-73B0DD1D3010*
G04*
G04*
G04 #@! TF.FilePolarity,Positive*
G04*
G01*
G75*
%ADD87C,0.00200*%
D87*
X20413Y29370D02*
X26319D01*
X23366Y26417D02*
Y32323D01*
X5413Y49370D02*
X11319D01*
X8366Y46417D02*
Y52323D01*
X30413Y49370D02*
X36319D01*
X33366Y46417D02*
Y52323D01*
X336614Y118110D02*
X348425D01*
X342520Y112205D02*
Y124016D01*
X205906Y118110D02*
X217717D01*
X211811Y112205D02*
Y124016D01*
X42126Y373228D02*
X45276D01*
X43701Y371654D02*
Y374803D01*
X62126Y373228D02*
X65276D01*
X63701Y371654D02*
Y374803D01*
X52126Y373228D02*
X55276D01*
X53701Y371654D02*
Y374803D01*
X32126Y373228D02*
X35276D01*
X33701Y371654D02*
Y374803D01*
X176575Y50236D02*
X180905D01*
X178740Y48071D02*
Y52402D01*
X176575Y60236D02*
X180905D01*
X178740Y58071D02*
Y62402D01*
X176575Y70236D02*
X180905D01*
X178740Y68071D02*
Y72402D01*
X176575Y80236D02*
X180905D01*
X178740Y78071D02*
Y82402D01*
X115835Y133500D02*
X120165D01*
X118000Y131335D02*
Y135665D01*
X115835Y143500D02*
X120165D01*
X118000Y141335D02*
Y145665D01*
X115835Y153500D02*
X120165D01*
X118000Y151335D02*
Y155665D01*
X115835Y163500D02*
X120165D01*
X118000Y161335D02*
Y165665D01*
X115835Y173500D02*
X120165D01*
X118000Y171335D02*
Y175665D01*
X115835Y183500D02*
X120165D01*
X118000Y181335D02*
Y185665D01*
X115835Y193500D02*
X120165D01*
X118000Y191335D02*
Y195665D01*
X115835Y203500D02*
X120165D01*
X118000Y201335D02*
Y205665D01*
X55728Y28000D02*
X59272D01*
X57500Y26228D02*
Y29772D01*
X55728Y14220D02*
X59272D01*
X57500Y12449D02*
Y15992D01*
X158740Y18504D02*
X161890D01*
X160315Y16929D02*
Y20079D01*
X178740Y18504D02*
X181890D01*
X180315Y16929D02*
Y20079D01*
X168740Y18504D02*
X171890D01*
X170315Y16929D02*
Y20079D01*
X148740Y18504D02*
X151890D01*
X150315Y16929D02*
Y20079D01*
X312050Y373500D02*
X315950D01*
X314000Y371550D02*
Y375450D01*
X302050Y373500D02*
X305950D01*
X304000Y371550D02*
Y375450D01*
X292050Y373500D02*
X295950D01*
X294000Y371550D02*
Y375450D01*
X282050Y373500D02*
X285950D01*
X284000Y371550D02*
Y375450D01*
X272050Y373500D02*
X275950D01*
X274000Y371550D02*
Y375450D01*
X262050Y373500D02*
X265950D01*
X264000Y371550D02*
Y375450D01*
X252050Y373500D02*
X255950D01*
X254000Y371550D02*
Y375450D01*
X242050Y373500D02*
X245950D01*
X244000Y371550D02*
Y375450D01*
X232050Y373500D02*
X235950D01*
X234000Y371550D02*
Y375450D01*
X222050Y373500D02*
X225950D01*
X224000Y371550D02*
Y375450D01*
X212050Y373500D02*
X215950D01*
X214000Y371550D02*
Y375450D01*
X202050Y373500D02*
X205950D01*
X204000Y371550D02*
Y375450D01*
X192050Y373500D02*
X195950D01*
X194000Y371550D02*
Y375450D01*
X182050Y373500D02*
X185950D01*
X184000Y371550D02*
Y375450D01*
X172050Y373500D02*
X175950D01*
X174000Y371550D02*
Y375450D01*
X162050Y373500D02*
X165950D01*
X164000Y371550D02*
Y375450D01*
X270586Y194959D02*
X273686D01*
X272136Y193409D02*
Y196509D01*
X297686Y213759D02*
X300786D01*
X299236Y212209D02*
Y215309D01*
X297686Y194959D02*
X300786D01*
X299236Y193409D02*
Y196509D01*
X270586Y213759D02*
X273686D01*
X272136Y212209D02*
Y215309D01*
X217886Y194759D02*
X220986D01*
X219436Y193209D02*
Y196309D01*
X244986Y213559D02*
X248086D01*
X246536Y212009D02*
Y215109D01*
X244986Y194759D02*
X248086D01*
X246536Y193209D02*
Y196309D01*
X217886Y213559D02*
X220986D01*
X219436Y212009D02*
Y215109D01*
X217886Y168559D02*
X220986D01*
X219436Y167009D02*
Y170109D01*
X244986Y149759D02*
X248086D01*
X246536Y148209D02*
Y151309D01*
X244986Y168559D02*
X248086D01*
X246536Y167009D02*
Y170109D01*
X217886Y149759D02*
X220986D01*
X219436Y148209D02*
Y151309D01*
X271386Y169259D02*
X274486D01*
X272936Y167709D02*
Y170809D01*
X298486Y150459D02*
X301586D01*
X300036Y148909D02*
Y152009D01*
X298486Y169259D02*
X301586D01*
X300036Y167709D02*
Y170809D01*
X271386Y150459D02*
X274486D01*
X272936Y148909D02*
Y152009D01*
X208789Y69000D02*
X211889D01*
X210339Y67450D02*
Y70550D01*
X208789Y59000D02*
X211889D01*
X210339Y57450D02*
Y60550D01*
X238789Y59000D02*
X241889D01*
X240339Y57450D02*
Y60550D01*
X238789Y69000D02*
X241889D01*
X240339Y67450D02*
Y70550D01*
X194173Y97500D02*
X198504D01*
X196339Y95335D02*
Y99665D01*
X194173Y87500D02*
X198504D01*
X196339Y85335D02*
Y89665D01*
X271839Y17000D02*
X276839D01*
X274339Y14500D02*
Y19500D01*
X291839Y17000D02*
X296839D01*
X294339Y14500D02*
Y19500D01*
X251839Y17000D02*
X256839D01*
X254339Y14500D02*
Y19500D01*
X231839Y17000D02*
X236839D01*
X234339Y14500D02*
Y19500D01*
X280966Y112906D02*
X285467D01*
X283217Y110655D02*
Y115155D01*
X304589Y57000D02*
X309089D01*
X306839Y54750D02*
Y59250D01*
X256589Y57000D02*
X261089D01*
X258839Y54750D02*
Y59250D01*
X304589Y105032D02*
X309089D01*
X306839Y102781D02*
Y107281D01*
X257345Y105032D02*
X261844D01*
X259594Y102781D02*
Y107281D01*
X336614Y11811D02*
X348425D01*
X342520Y5906D02*
Y17717D01*
X100450Y133500D02*
X103550D01*
X102000Y131950D02*
Y135050D01*
X100450Y143500D02*
X103550D01*
X102000Y141950D02*
Y145050D01*
X100450Y153500D02*
X103550D01*
X102000Y151950D02*
Y155050D01*
X100450Y163500D02*
X103550D01*
X102000Y161950D02*
Y165050D01*
X100450Y173500D02*
X103550D01*
X102000Y171950D02*
Y175050D01*
X100450Y183500D02*
X103550D01*
X102000Y181950D02*
Y185050D01*
X100450Y193500D02*
X103550D01*
X102000Y191950D02*
Y195050D01*
X100450Y203500D02*
X103550D01*
X102000Y201950D02*
Y205050D01*
X100450Y213500D02*
X103550D01*
X102000Y211950D02*
Y215050D01*
X100450Y223500D02*
X103550D01*
X102000Y221950D02*
Y225050D01*
X100450Y233500D02*
X103550D01*
X102000Y231950D02*
Y235050D01*
X100450Y243500D02*
X103550D01*
X102000Y241950D02*
Y245050D01*
X100450Y253500D02*
X103550D01*
X102000Y251950D02*
Y255050D01*
X100450Y263500D02*
X103550D01*
X102000Y261950D02*
Y265050D01*
X100450Y273500D02*
X103550D01*
X102000Y271950D02*
Y275050D01*
X100450Y283500D02*
X103550D01*
X102000Y281950D02*
Y285050D01*
X100450Y293500D02*
X103550D01*
X102000Y291950D02*
Y295050D01*
X100450Y303500D02*
X103550D01*
X102000Y301950D02*
Y305050D01*
X100450Y313500D02*
X103550D01*
X102000Y311950D02*
Y315050D01*
X100450Y323500D02*
X103550D01*
X102000Y321950D02*
Y325050D01*
X40450Y133500D02*
X43550D01*
X42000Y131950D02*
Y135050D01*
X40450Y143500D02*
X43550D01*
X42000Y141950D02*
Y145050D01*
X40450Y153500D02*
X43550D01*
X42000Y151950D02*
Y155050D01*
X40450Y163500D02*
X43550D01*
X42000Y161950D02*
Y165050D01*
X40450Y173500D02*
X43550D01*
X42000Y171950D02*
Y175050D01*
X40450Y183500D02*
X43550D01*
X42000Y181950D02*
Y185050D01*
X40450Y193500D02*
X43550D01*
X42000Y191950D02*
Y195050D01*
X40450Y203500D02*
X43550D01*
X42000Y201950D02*
Y205050D01*
X40450Y213500D02*
X43550D01*
X42000Y211950D02*
Y215050D01*
X40450Y223500D02*
X43550D01*
X42000Y221950D02*
Y225050D01*
X40450Y233500D02*
X43550D01*
X42000Y231950D02*
Y235050D01*
X40450Y243500D02*
X43550D01*
X42000Y241950D02*
Y245050D01*
X40450Y253500D02*
X43550D01*
X42000Y251950D02*
Y255050D01*
X40450Y263500D02*
X43550D01*
X42000Y261950D02*
Y265050D01*
X40450Y273500D02*
X43550D01*
X42000Y271950D02*
Y275050D01*
X40450Y283500D02*
X43550D01*
X42000Y281950D02*
Y285050D01*
X40450Y293500D02*
X43550D01*
X42000Y291950D02*
Y295050D01*
X40450Y303500D02*
X43550D01*
X42000Y301950D02*
Y305050D01*
X40450Y313500D02*
X43550D01*
X42000Y311950D02*
Y315050D01*
X40450Y323500D02*
X43550D01*
X42000Y321950D02*
Y325050D01*
X86925Y373000D02*
X90075D01*
X88500Y371425D02*
Y374575D01*
X96925Y373000D02*
X100075D01*
X98500Y371425D02*
Y374575D01*
X106925Y373000D02*
X110075D01*
X108500Y371425D02*
Y374575D01*
X5906Y374016D02*
X17717D01*
X11811Y368110D02*
Y379921D01*
X336614Y374016D02*
X348425D01*
X342520Y368110D02*
Y379921D01*
X5906Y11811D02*
X17717D01*
X11811Y5906D02*
Y17717D01*
X156550Y168700D02*
X159650D01*
X158100Y167150D02*
Y170250D01*
X129450Y187500D02*
X132550D01*
X131000Y185950D02*
Y189050D01*
X129450Y168700D02*
X132550D01*
X131000Y167150D02*
Y170250D01*
X156550Y187500D02*
X159650D01*
X158100Y185950D02*
Y189050D01*
X79335Y92500D02*
X83665D01*
X81500Y90335D02*
Y94665D01*
X69335Y92500D02*
X73665D01*
X71500Y90335D02*
Y94665D01*
X59335Y92500D02*
X63665D01*
X61500Y90335D02*
Y94665D01*
X79335Y102500D02*
X83665D01*
X81500Y100335D02*
Y104665D01*
X69335Y102500D02*
X73665D01*
X71500Y100335D02*
Y104665D01*
X59335Y102500D02*
X63665D01*
X61500Y100335D02*
Y104665D01*
X23335Y203500D02*
X27665D01*
X25500Y201335D02*
Y205665D01*
X23335Y193500D02*
X27665D01*
X25500Y191335D02*
Y195665D01*
X23335Y183500D02*
X27665D01*
X25500Y181335D02*
Y185665D01*
X23335Y173500D02*
X27665D01*
X25500Y171335D02*
Y175665D01*
X23335Y163500D02*
X27665D01*
X25500Y161335D02*
Y165665D01*
X23335Y153500D02*
X27665D01*
X25500Y151335D02*
Y155665D01*
X23335Y143500D02*
X27665D01*
X25500Y141335D02*
Y145665D01*
X23335Y133500D02*
X27665D01*
X25500Y131335D02*
Y135665D01*
X23335Y253500D02*
X27665D01*
X25500Y251335D02*
Y255665D01*
X23335Y323500D02*
X27665D01*
X25500Y321335D02*
Y325665D01*
X23335Y313500D02*
X27665D01*
X25500Y311335D02*
Y315665D01*
X23335Y303500D02*
X27665D01*
X25500Y301335D02*
Y305665D01*
X23335Y293500D02*
X27665D01*
X25500Y291335D02*
Y295665D01*
X23335Y283500D02*
X27665D01*
X25500Y281335D02*
Y285665D01*
X23335Y273500D02*
X27665D01*
X25500Y271335D02*
Y275665D01*
X23335Y263500D02*
X27665D01*
X25500Y261335D02*
Y265665D01*
X23335Y243500D02*
X27665D01*
X25500Y241335D02*
Y245665D01*
X115835Y283500D02*
X120165D01*
X118000Y281335D02*
Y285665D01*
X115835Y263500D02*
X120165D01*
X118000Y261335D02*
Y265665D01*
X115835Y273500D02*
X120165D01*
X118000Y271335D02*
Y275665D01*
X115835Y293500D02*
X120165D01*
X118000Y291335D02*
Y295665D01*
X115835Y303500D02*
X120165D01*
X118000Y301335D02*
Y305665D01*
X115835Y313500D02*
X120165D01*
X118000Y311335D02*
Y315665D01*
X115835Y323500D02*
X120165D01*
X118000Y321335D02*
Y325665D01*
X98032Y19685D02*
X100394D01*
X99213Y18504D02*
Y20866D01*
X98032Y14685D02*
X100394D01*
X99213Y13504D02*
Y15866D01*
X133425Y223854D02*
X136575D01*
X135000Y222280D02*
Y225429D01*
X133425Y243146D02*
X136575D01*
X135000Y241571D02*
Y244720D01*
X15425Y83500D02*
X18575D01*
X17000Y81925D02*
Y85075D01*
X15425Y103500D02*
X18575D01*
X17000Y101925D02*
Y105075D01*
X15425Y93500D02*
X18575D01*
X17000Y91925D02*
Y95075D01*
X228939Y92500D02*
X231739D01*
X230339Y91100D02*
Y93900D01*
X160630Y204724D02*
X162205D01*
X161417Y203937D02*
Y205512D01*
X160630Y212598D02*
X162205D01*
X161417Y211811D02*
Y213386D01*
M02*
